<mxfile host="app.diagrams.net" modified="2024-04-11T17:54:36.155Z" agent="Mozilla/5.0 (Windows NT 10.0; Win64; x64) AppleWebKit/537.36 (KHTML, like Gecko) Chrome/123.0.0.0 Safari/537.36" etag="hCHxXEsbU-K8kYnp7Unk" version="24.2.3" type="github">
  <diagram name="Sayfa -1" id="TCRlumir58DF3NTFlVKL">
    <mxGraphModel dx="1434" dy="780" grid="1" gridSize="10" guides="1" tooltips="1" connect="1" arrows="1" fold="1" page="1" pageScale="1" pageWidth="827" pageHeight="1169" math="0" shadow="0">
      <root>
        <mxCell id="0" />
        <mxCell id="1" parent="0" />
        <mxCell id="VoffytGsomYPn4GY-H6U-2" value="FollowerSettings" style="rounded=0;whiteSpace=wrap;html=1;fillColor=#d80073;fontColor=#ffffff;strokeColor=#A50040;" parent="1" vertex="1">
          <mxGeometry x="590" y="410" width="120" height="60" as="geometry" />
        </mxCell>
        <mxCell id="VoffytGsomYPn4GY-H6U-14" style="edgeStyle=orthogonalEdgeStyle;rounded=0;orthogonalLoop=1;jettySize=auto;html=1;entryX=0.5;entryY=1;entryDx=0;entryDy=0;" parent="1" source="VoffytGsomYPn4GY-H6U-3" target="VoffytGsomYPn4GY-H6U-13" edge="1">
          <mxGeometry relative="1" as="geometry" />
        </mxCell>
        <mxCell id="VoffytGsomYPn4GY-H6U-3" value="Follower" style="rounded=0;whiteSpace=wrap;html=1;fillColor=#008a00;fontColor=#ffffff;strokeColor=#005700;" parent="1" vertex="1">
          <mxGeometry x="600" y="280" width="120" height="60" as="geometry" />
        </mxCell>
        <mxCell id="VoffytGsomYPn4GY-H6U-4" value="ScriptableObjects" style="rounded=0;whiteSpace=wrap;html=1;fillColor=#d80073;fontColor=#ffffff;strokeColor=#A50040;" parent="1" vertex="1">
          <mxGeometry x="30" y="20" width="120" height="60" as="geometry" />
        </mxCell>
        <mxCell id="VoffytGsomYPn4GY-H6U-5" value="Monobehaivour" style="rounded=0;whiteSpace=wrap;html=1;fillColor=#008a00;fontColor=#ffffff;strokeColor=#005700;" parent="1" vertex="1">
          <mxGeometry x="30" y="110" width="120" height="60" as="geometry" />
        </mxCell>
        <mxCell id="VoffytGsomYPn4GY-H6U-6" style="edgeStyle=orthogonalEdgeStyle;rounded=0;orthogonalLoop=1;jettySize=auto;html=1;entryX=0.417;entryY=1.017;entryDx=0;entryDy=0;entryPerimeter=0;" parent="1" source="VoffytGsomYPn4GY-H6U-2" target="VoffytGsomYPn4GY-H6U-3" edge="1">
          <mxGeometry relative="1" as="geometry" />
        </mxCell>
        <mxCell id="VoffytGsomYPn4GY-H6U-10" style="edgeStyle=orthogonalEdgeStyle;rounded=0;orthogonalLoop=1;jettySize=auto;html=1;entryX=0.5;entryY=1;entryDx=0;entryDy=0;" parent="1" source="VoffytGsomYPn4GY-H6U-8" target="VoffytGsomYPn4GY-H6U-9" edge="1">
          <mxGeometry relative="1" as="geometry" />
        </mxCell>
        <mxCell id="VoffytGsomYPn4GY-H6U-8" value="PlayerControllerData" style="rounded=0;whiteSpace=wrap;html=1;fillColor=#d80073;fontColor=#ffffff;strokeColor=#A50040;" parent="1" vertex="1">
          <mxGeometry x="400" y="294" width="120" height="60" as="geometry" />
        </mxCell>
        <mxCell id="VoffytGsomYPn4GY-H6U-16" style="edgeStyle=orthogonalEdgeStyle;rounded=0;orthogonalLoop=1;jettySize=auto;html=1;entryX=0;entryY=0.5;entryDx=0;entryDy=0;" parent="1" source="VoffytGsomYPn4GY-H6U-9" target="VoffytGsomYPn4GY-H6U-12" edge="1">
          <mxGeometry relative="1" as="geometry" />
        </mxCell>
        <mxCell id="VoffytGsomYPn4GY-H6U-9" value="PlayerController" style="rounded=0;whiteSpace=wrap;html=1;fillColor=#008a00;fontColor=#ffffff;strokeColor=#005700;" parent="1" vertex="1">
          <mxGeometry x="400" y="120" width="120" height="60" as="geometry" />
        </mxCell>
        <mxCell id="VoffytGsomYPn4GY-H6U-12" value="InputManager" style="rounded=0;whiteSpace=wrap;html=1;fillColor=#008a00;fontColor=#ffffff;strokeColor=#005700;" parent="1" vertex="1">
          <mxGeometry x="490" y="30" width="120" height="60" as="geometry" />
        </mxCell>
        <mxCell id="VoffytGsomYPn4GY-H6U-15" style="edgeStyle=orthogonalEdgeStyle;rounded=0;orthogonalLoop=1;jettySize=auto;html=1;entryX=1;entryY=0.5;entryDx=0;entryDy=0;" parent="1" source="VoffytGsomYPn4GY-H6U-13" target="VoffytGsomYPn4GY-H6U-12" edge="1">
          <mxGeometry relative="1" as="geometry" />
        </mxCell>
        <mxCell id="VoffytGsomYPn4GY-H6U-13" value="CollectManager" style="rounded=0;whiteSpace=wrap;html=1;fillColor=#008a00;fontColor=#ffffff;strokeColor=#005700;" parent="1" vertex="1">
          <mxGeometry x="600" y="120" width="120" height="60" as="geometry" />
        </mxCell>
        <mxCell id="VoffytGsomYPn4GY-H6U-17" value="RoadManager" style="rounded=0;whiteSpace=wrap;html=1;fillColor=#008a00;fontColor=#ffffff;strokeColor=#005700;" parent="1" vertex="1">
          <mxGeometry x="790" y="130" width="120" height="60" as="geometry" />
        </mxCell>
        <mxCell id="xBM2OI8F0wWkyWfb3j4N-6" value="SaveSystem.cs&lt;div&gt;&lt;div&gt;&lt;br&gt;&lt;/div&gt;&lt;/div&gt;" style="rounded=0;whiteSpace=wrap;html=1;fillColor=#1ba1e2;strokeColor=#006EAF;fontColor=#ffffff;" vertex="1" parent="1">
          <mxGeometry x="950" y="130" width="130" height="70" as="geometry" />
        </mxCell>
        <mxCell id="xBM2OI8F0wWkyWfb3j4N-19" style="edgeStyle=orthogonalEdgeStyle;rounded=0;orthogonalLoop=1;jettySize=auto;html=1;entryX=0.5;entryY=1;entryDx=0;entryDy=0;" edge="1" parent="1" source="xBM2OI8F0wWkyWfb3j4N-11" target="xBM2OI8F0wWkyWfb3j4N-6">
          <mxGeometry relative="1" as="geometry" />
        </mxCell>
        <mxCell id="xBM2OI8F0wWkyWfb3j4N-11" value="&lt;div&gt;&lt;div&gt;Inventory&lt;/div&gt;&lt;/div&gt;" style="rounded=0;whiteSpace=wrap;html=1;fillColor=#1ba1e2;strokeColor=#006EAF;fontColor=#ffffff;" vertex="1" parent="1">
          <mxGeometry x="955" y="270" width="120" height="50" as="geometry" />
        </mxCell>
        <mxCell id="xBM2OI8F0wWkyWfb3j4N-21" style="edgeStyle=orthogonalEdgeStyle;rounded=0;orthogonalLoop=1;jettySize=auto;html=1;entryX=0.5;entryY=1;entryDx=0;entryDy=0;" edge="1" parent="1" source="xBM2OI8F0wWkyWfb3j4N-12" target="xBM2OI8F0wWkyWfb3j4N-11">
          <mxGeometry relative="1" as="geometry" />
        </mxCell>
        <mxCell id="xBM2OI8F0wWkyWfb3j4N-12" value="&lt;div&gt;&lt;div&gt;Item&lt;/div&gt;&lt;/div&gt;" style="rounded=0;whiteSpace=wrap;html=1;fillColor=#1ba1e2;strokeColor=#006EAF;fontColor=#ffffff;" vertex="1" parent="1">
          <mxGeometry x="950" y="400" width="130" height="30" as="geometry" />
        </mxCell>
        <mxCell id="xBM2OI8F0wWkyWfb3j4N-18" style="edgeStyle=orthogonalEdgeStyle;rounded=0;orthogonalLoop=1;jettySize=auto;html=1;entryX=0.5;entryY=1;entryDx=0;entryDy=0;" edge="1" parent="1" source="xBM2OI8F0wWkyWfb3j4N-15" target="VoffytGsomYPn4GY-H6U-17">
          <mxGeometry relative="1" as="geometry" />
        </mxCell>
        <mxCell id="xBM2OI8F0wWkyWfb3j4N-15" value="Road" style="rounded=0;whiteSpace=wrap;html=1;fillColor=#008a00;fontColor=#ffffff;strokeColor=#005700;" vertex="1" parent="1">
          <mxGeometry x="790" y="280" width="120" height="60" as="geometry" />
        </mxCell>
      </root>
    </mxGraphModel>
  </diagram>
</mxfile>
